<svg width="189" height="167" viewBox="0 0 189 167" fill="none" xmlns="http://www.w3.org/2000/svg">
<path d="M25.7344 166.576H163.874C178.5 166.576 190.201 156.061 188.901 143.333L183.701 77.4773L183.051 65.579L179.475 20.7529C178.825 9.13126 167.449 0 153.798 0H35.4854C21.834 0 10.4579 9.13126 9.80781 20.7529L4.60727 88.5455L3.63217 99.6137L0.0568039 143.333C-0.918296 156.061 10.7829 166.576 25.7344 166.576Z" fill="url(#paint0_linear_214:29)"/>
<path d="M53.8614 110.584C53.2523 113.434 51.9581 115.685 49.9786 117.338C48.0209 118.97 45.6281 119.785 42.8004 119.785C41.1254 119.785 39.6463 119.513 38.3629 118.97C37.1013 118.426 36.0789 117.664 35.2958 116.686C34.5345 115.685 34.0342 114.489 33.7949 113.096C33.5556 111.683 33.61 110.138 33.9581 108.463L36.4704 96.6517H41.9846L39.3417 109.05C38.9937 110.747 39.1677 112.107 39.8638 113.129C40.5816 114.13 41.691 114.63 43.1919 114.63C44.497 114.63 45.639 114.206 46.6179 113.357C47.5967 112.509 48.2275 111.4 48.5103 110.029L51.349 96.6517H56.8306L53.8614 110.584ZM53.6256 126.376L58.7483 102.231H63.8709L63.7078 102.982C64.2951 102.655 64.9041 102.416 65.535 102.264C66.1658 102.09 66.8183 102.003 67.4927 102.003C68.5803 102.003 69.5918 102.209 70.5271 102.623C71.4625 103.036 72.2673 103.602 72.9416 104.319C73.6377 105.037 74.1815 105.886 74.573 106.864C74.9863 107.843 75.193 108.898 75.193 110.029C75.193 111.378 74.9319 112.64 74.4099 113.814C73.9096 114.989 73.2244 116.011 72.3543 116.881C71.506 117.751 70.4836 118.447 69.2872 118.97C68.1126 119.47 66.8618 119.72 65.535 119.72C64.5779 119.72 63.6751 119.579 62.8268 119.296C62.0002 118.991 61.2606 118.567 60.6081 118.023L58.8135 126.376H53.6256ZM66.057 106.473C65.448 106.473 64.8715 106.571 64.3277 106.766C63.7839 106.941 63.2836 107.212 62.8268 107.582L61.5543 113.586C61.9676 114.086 62.5005 114.489 63.1531 114.793C63.8274 115.076 64.5561 115.217 65.3392 115.217C66.6878 115.217 67.8189 114.76 68.7325 113.847C69.6679 112.912 70.1356 111.791 70.1356 110.486C70.1356 109.355 69.744 108.409 68.9609 107.647C68.1996 106.864 67.2316 106.473 66.057 106.473ZM75.5116 115.283L79.1007 111.432C80.3406 112.716 81.5696 113.662 82.7877 114.271C84.0276 114.858 85.3436 115.152 86.7358 115.152C87.8669 115.152 88.7587 114.945 89.4113 114.532C90.0639 114.119 90.3902 113.542 90.3902 112.803C90.3902 112.302 90.1726 111.889 89.7376 111.563C89.3243 111.237 88.6174 110.943 87.6167 110.682L82.853 109.442C81.2868 109.029 80.0796 108.322 79.2312 107.321C78.4047 106.321 77.9914 105.102 77.9914 103.667C77.9914 101.405 78.7962 99.6209 80.4059 98.3157C82.0373 96.9889 84.2343 96.3254 86.9968 96.3254C88.8893 96.3254 90.7273 96.6734 92.511 97.3695C94.3164 98.0656 95.8391 99.0336 97.079 100.273L93.6204 104.189C92.511 103.101 91.369 102.296 90.1944 101.774C89.0415 101.252 87.8125 100.991 86.5074 100.991C85.5068 100.991 84.7128 101.176 84.1255 101.546C83.5382 101.916 83.2445 102.405 83.2445 103.014C83.2445 103.493 83.4294 103.884 83.7992 104.189C84.1908 104.493 84.8216 104.754 85.6917 104.972L90.1618 106.049C92.0107 106.484 93.4246 107.212 94.4035 108.235C95.3823 109.257 95.8717 110.519 95.8717 112.02C95.8717 113.194 95.6433 114.271 95.1865 115.25C94.7297 116.207 94.088 117.023 93.2615 117.697C92.4349 118.371 91.4234 118.893 90.227 119.263C89.0306 119.633 87.7146 119.818 86.279 119.818C84.1473 119.818 82.1569 119.426 80.308 118.643C78.459 117.86 76.8602 116.74 75.5116 115.283ZM96.3892 119.492L101.251 96.6517L106.667 95.5097L105.003 103.308C105.677 102.873 106.395 102.547 107.157 102.329C107.918 102.09 108.701 101.97 109.506 101.97C110.528 101.97 111.431 102.155 112.214 102.525C113.019 102.895 113.661 103.395 114.139 104.026C114.639 104.657 114.966 105.418 115.118 106.31C115.292 107.202 115.27 108.17 115.053 109.214L112.867 119.492H107.679L109.767 109.703C109.963 108.724 109.821 107.941 109.343 107.354C108.864 106.745 108.146 106.44 107.189 106.44C106.58 106.44 106.015 106.549 105.493 106.766C104.992 106.984 104.525 107.299 104.09 107.713L101.577 119.492H96.3892ZM116.998 111.498C116.998 110.192 117.259 108.953 117.781 107.778C118.304 106.603 119 105.592 119.87 104.744C120.762 103.873 121.806 103.188 123.002 102.688C124.198 102.166 125.46 101.905 126.787 101.905C128.005 101.905 129.147 102.122 130.213 102.557C131.279 102.971 132.192 103.547 132.954 104.287C133.715 105.026 134.313 105.907 134.748 106.93C135.205 107.952 135.433 109.05 135.433 110.225C135.433 111.53 135.172 112.77 134.65 113.945C134.128 115.098 133.421 116.109 132.529 116.979C131.659 117.849 130.626 118.545 129.43 119.067C128.255 119.568 127.004 119.818 125.678 119.818C124.438 119.818 123.285 119.611 122.219 119.198C121.153 118.763 120.239 118.176 119.478 117.436C118.717 116.696 118.108 115.815 117.651 114.793C117.216 113.771 116.998 112.672 116.998 111.498ZM125.906 115.25C127.124 115.25 128.168 114.782 129.038 113.847C129.908 112.89 130.343 111.759 130.343 110.454C130.343 109.301 129.984 108.354 129.267 107.615C128.549 106.854 127.635 106.473 126.526 106.473C125.308 106.473 124.264 106.951 123.394 107.908C122.523 108.844 122.088 109.964 122.088 111.269C122.088 112.422 122.447 113.379 123.165 114.141C123.883 114.88 124.797 115.25 125.906 115.25ZM134.591 126.376L139.714 102.231H144.837L144.673 102.982C145.261 102.655 145.87 102.416 146.501 102.264C147.131 102.09 147.784 102.003 148.458 102.003C149.546 102.003 150.557 102.209 151.493 102.623C152.428 103.036 153.233 103.602 153.907 104.319C154.603 105.037 155.147 105.886 155.539 106.864C155.952 107.843 156.159 108.898 156.159 110.029C156.159 111.378 155.898 112.64 155.375 113.814C154.875 114.989 154.19 116.011 153.32 116.881C152.472 117.751 151.449 118.447 150.253 118.97C149.078 119.47 147.827 119.72 146.501 119.72C145.543 119.72 144.641 119.579 143.792 119.296C142.966 118.991 142.226 118.567 141.574 118.023L139.779 126.376H134.591ZM147.023 106.473C146.414 106.473 145.837 106.571 145.293 106.766C144.75 106.941 144.249 107.212 143.792 107.582L142.52 113.586C142.933 114.086 143.466 114.489 144.119 114.793C144.793 115.076 145.522 115.217 146.305 115.217C147.653 115.217 148.785 114.76 149.698 113.847C150.633 112.912 151.101 111.791 151.101 110.486C151.101 109.355 150.71 108.409 149.927 107.647C149.165 106.864 148.197 106.473 147.023 106.473Z" fill="white"/>
<path d="M57.6611 23.3849C57.6611 77.9961 131.339 79.817 131.339 23.3849" stroke="white" stroke-width="7.41611"/>
<defs>
<linearGradient id="paint0_linear_214:29" x1="94.8044" y1="162.624" x2="94.8044" y2="4.99923" gradientUnits="userSpaceOnUse">
<stop stop-color="#15258F"/>
<stop offset="1" stop-color="#2E4DA3"/>
</linearGradient>
</defs>
</svg>
